<mxfile host="app.diagrams.net" modified="2024-05-01T00:09:05.329Z" agent="Mozilla/5.0 (Macintosh; Intel Mac OS X 10_15_7) AppleWebKit/537.36 (KHTML, like Gecko) Chrome/124.0.0.0 Safari/537.36" etag="6RLniKxPG0lflI8oNa4Y" version="24.3.1" type="github">
  <diagram id="0d7cefc2-ccd6-e077-73ed-a8e48b0cddf6" name="Page-1">
    <mxGraphModel dx="1196" dy="675" grid="1" gridSize="10" guides="1" tooltips="1" connect="1" arrows="1" fold="1" page="1" pageScale="1" pageWidth="1169" pageHeight="827" background="none" math="0" shadow="0">
      <root>
        <mxCell id="0" />
        <mxCell id="1" parent="0" />
        <mxCell id="2" value="" style="swimlane;shadow=0;strokeColor=#4277BB;fillColor=#ffffff;fontColor=#4277BB;align=right;startSize=0;collapsible=0;strokeWidth=3;" parent="1" vertex="1">
          <mxGeometry x="178" y="74" width="813" height="680" as="geometry" />
        </mxCell>
        <mxCell id="77" value="" style="swimlane;shadow=0;strokeColor=#4277BB;fillColor=#ffffff;fontColor=#4277BB;align=right;startSize=0;collapsible=0;strokeWidth=3;" parent="2" vertex="1">
          <mxGeometry x="102" y="76" width="137" height="483" as="geometry" />
        </mxCell>
        <mxCell id="ewTyegpTOpHVsLge5FGa-80" value="Q-TRAINING&amp;nbsp;&lt;div&gt;(MOODLE)&lt;/div&gt;" style="aspect=fixed;perimeter=ellipsePerimeter;html=1;align=center;shadow=0;dashed=0;image;image=https://www.shareicon.net/download/2016/11/01/849406_internet_512x512.png;rounded=1;labelBackgroundColor=#ffffff;strokeColor=#666666;strokeWidth=3;fillColor=#C2952D;gradientColor=none;fontSize=14;fontColor=#4277BB;spacingTop=3;" vertex="1" parent="77">
          <mxGeometry x="38.5" y="140" width="60" height="60" as="geometry" />
        </mxCell>
        <mxCell id="ewTyegpTOpHVsLge5FGa-81" value="Especificaciones:&lt;div&gt;4GB RAM&lt;/div&gt;&lt;div&gt;95 GB DISCO&lt;/div&gt;" style="text;strokeColor=none;align=center;fillColor=none;html=1;verticalAlign=middle;whiteSpace=wrap;rounded=0;" vertex="1" parent="77">
          <mxGeometry x="18" y="299" width="101" height="121" as="geometry" />
        </mxCell>
        <mxCell id="79" value="" style="swimlane;shadow=0;strokeColor=#4277BB;fillColor=#ffffff;fontColor=#4277BB;align=right;startSize=0;collapsible=0;strokeWidth=3;" parent="2" vertex="1">
          <mxGeometry x="572" y="76" width="137" height="483" as="geometry" />
        </mxCell>
        <mxCell id="76" value="PÁGINA WEB" style="aspect=fixed;perimeter=ellipsePerimeter;html=1;align=center;shadow=0;dashed=0;image;image=https://www.shareicon.net/download/2016/11/01/849406_internet_512x512.png;rounded=1;labelBackgroundColor=#ffffff;strokeColor=#666666;strokeWidth=3;fillColor=#C2952D;gradientColor=none;fontSize=14;fontColor=#4277BB;spacingTop=3;" parent="79" vertex="1">
          <mxGeometry x="38.5" y="29" width="60" height="60" as="geometry" />
        </mxCell>
        <mxCell id="_2AF7Mw2Bp89DIMeeTaD-107" value="Q-CONTROL" style="aspect=fixed;perimeter=ellipsePerimeter;html=1;align=center;shadow=0;dashed=0;image;image=https://www.shareicon.net/download/2016/11/01/849406_internet_512x512.png;rounded=1;labelBackgroundColor=#ffffff;strokeColor=#666666;strokeWidth=3;fillColor=#C2952D;gradientColor=none;fontSize=14;fontColor=#4277BB;spacingTop=3;" parent="79" vertex="1">
          <mxGeometry x="38.5" y="169" width="60" height="60" as="geometry" />
        </mxCell>
        <mxCell id="ewTyegpTOpHVsLge5FGa-79" value="Especificaciones:&lt;div&gt;4GB RAM&lt;/div&gt;&lt;div&gt;25 GB DISCO&lt;/div&gt;" style="text;strokeColor=none;align=center;fillColor=none;html=1;verticalAlign=middle;whiteSpace=wrap;rounded=0;" vertex="1" parent="79">
          <mxGeometry x="18" y="299" width="101" height="121" as="geometry" />
        </mxCell>
        <mxCell id="_2AF7Mw2Bp89DIMeeTaD-106" style="edgeStyle=orthogonalEdgeStyle;rounded=0;orthogonalLoop=1;jettySize=auto;html=1;exitX=0.5;exitY=1;exitDx=0;exitDy=0;" parent="2" source="79" target="79" edge="1">
          <mxGeometry relative="1" as="geometry" />
        </mxCell>
        <mxCell id="ewTyegpTOpHVsLge5FGa-82" value="&lt;b&gt;&lt;font style=&quot;font-size: 26px;&quot;&gt;SERVIDORES Q-SACS&lt;/font&gt;&lt;/b&gt;" style="text;strokeColor=none;align=center;fillColor=none;html=1;verticalAlign=middle;whiteSpace=wrap;rounded=0;" vertex="1" parent="2">
          <mxGeometry x="208" y="606" width="398" height="30" as="geometry" />
        </mxCell>
      </root>
    </mxGraphModel>
  </diagram>
</mxfile>
